<svg width="367" height="120" viewBox="0 0 367 120" fill="none" xmlns="http://www.w3.org/2000/svg">
    <path d="M349.231 0H16.9231C7.57672 0 0 7.57672 0 16.9231V103.077C0 112.423 7.57672 120 16.9231 120H349.231C358.577 120 366.154 112.423 366.154 103.077V16.9231C366.154 7.57672 358.577 0 349.231 0Z" fill="black" fill-opacity="0.3"/>
    <path d="M85.5112 61.6575C85.5415 59.3578 86.1672 57.1028 87.3302 55.1025C88.493 53.1023 90.1552 51.4218 92.162 50.2173C90.887 48.4395 89.2052 46.9768 87.25 45.9448C85.2945 44.9125 83.1197 44.34 80.898 44.272C76.1587 43.7865 71.5645 47.0408 69.1495 47.0408C66.6877 47.0408 62.9695 44.3203 58.9655 44.4008C56.3755 44.4825 53.8515 45.2178 51.6392 46.535C49.427 47.852 47.6019 49.7063 46.3418 51.917C40.8838 61.1428 44.955 74.702 50.1835 82.1598C52.7992 85.8115 55.8565 89.8905 59.857 89.746C63.7715 89.5873 65.2335 87.3088 69.9587 87.3088C74.6402 87.3088 76.012 89.746 80.0935 89.654C84.294 89.5873 86.9405 85.986 89.4647 82.2995C91.3442 79.6975 92.7905 76.8218 93.75 73.7788C91.3095 72.771 89.227 71.0843 87.762 68.9288C86.2967 66.7733 85.514 64.2443 85.5112 61.6575Z" fill="white"/>
    <path d="M77.7993 39.3678C80.0895 36.6835 81.2178 33.2334 80.9445 29.75C77.4455 30.1088 74.2133 31.7415 71.892 34.3228C70.7573 35.5838 69.888 37.0507 69.334 38.64C68.7803 40.2292 68.5528 41.9095 68.6643 43.5845C70.4145 43.602 72.146 43.2318 73.7283 42.5013C75.3105 41.771 76.7025 40.6995 77.7993 39.3678Z" fill="white"/>
    <path d="M115.727 31.0039H120.901C125.373 31.0039 127.548 33.6626 127.548 38.4855C127.548 43.3085 125.351 46.0002 120.901 46.0002H115.727V31.0039ZM118.221 33.1023V43.9017H120.627C123.593 43.9017 124.988 42.111 124.988 38.5185C124.988 34.904 123.582 33.1023 120.627 33.1023H118.221ZM135.436 34.1899C138.468 34.1899 140.589 36.1565 140.589 39.4195V40.9245C140.589 44.2972 138.468 46.198 135.436 46.198C132.36 46.198 130.262 44.3192 130.262 40.9355V39.4305C130.262 36.2555 132.393 34.1899 135.436 34.1899ZM135.447 36.1565C133.711 36.1565 132.723 37.6067 132.723 39.5512V40.8477C132.723 42.7922 133.645 44.2315 135.447 44.2315C137.227 44.2315 138.139 42.8032 138.139 40.8477V39.5512C138.139 37.6067 137.183 36.1565 135.447 36.1565ZM158.496 34.3877L155.442 46.0002H152.959L150.531 37.431H150.465L148.081 46.0002H145.588L142.401 34.3877H145.027L146.895 43.2427H147.005L149.345 34.3877H151.641L154.047 43.2427H154.157L156.057 34.3877H158.496ZM160.913 46.0002V34.3877H163.308V36.475H163.429C163.726 35.5632 164.572 34.2119 166.923 34.2119C169.263 34.2119 170.834 35.5082 170.834 38.156V46.0002H168.395V38.87C168.395 37.1012 167.472 36.2882 166.099 36.2882C164.297 36.2882 163.352 37.6725 163.352 39.5512V46.0002H160.913ZM174.525 46.0002V30.2129H176.964V46.0002H174.525ZM185.336 34.1899C188.368 34.1899 190.489 36.1565 190.489 39.4195V40.9245C190.489 44.2972 188.368 46.198 185.336 46.198C182.26 46.198 180.161 44.3192 180.161 40.9355V39.4305C180.161 36.2555 182.293 34.1899 185.336 34.1899ZM185.347 36.1565C183.611 36.1565 182.622 37.6067 182.622 39.5512V40.8477C182.622 42.7922 183.545 44.2315 185.347 44.2315C187.127 44.2315 188.039 42.8032 188.039 40.8477V39.5512C188.039 37.6067 187.083 36.1565 185.347 36.1565ZM196.806 46.176C194.554 46.176 193.004 44.7917 193.004 42.6275C193.004 40.573 194.433 39.1887 197.113 39.1887H200.047V38.101C200.047 36.7717 199.201 36.1455 197.86 36.1455C196.542 36.1455 195.949 36.6947 195.762 37.4637H193.444C193.587 35.5192 195.048 34.2119 197.937 34.2119C200.42 34.2119 202.475 35.2447 202.475 38.134V46.0002H200.157V44.495H200.047C199.53 45.385 198.52 46.176 196.806 46.176ZM197.564 44.2865C198.948 44.2865 200.047 43.3415 200.047 42.0782V40.8257H197.498C196.081 40.8257 195.454 41.5397 195.454 42.5065C195.454 43.715 196.465 44.2865 197.564 44.2865ZM209.989 34.2339C211.626 34.2339 212.879 34.959 213.329 36.1345H213.45V30.2129H215.889V46.0002H213.516V44.1435H213.395C213.044 45.319 211.648 46.154 209.956 46.154C207.287 46.154 205.551 44.2535 205.551 41.1882V39.1997C205.551 36.1345 207.32 34.2339 209.989 34.2339ZM210.671 36.2335C209.045 36.2335 208.034 37.442 208.034 39.5512V40.8257C208.034 42.946 209.056 44.1545 210.725 44.1545C212.373 44.1545 213.45 42.957 213.45 40.9795V39.2217C213.45 37.431 212.275 36.2335 210.671 36.2335ZM229.281 34.1899C232.314 34.1899 234.434 36.1565 234.434 39.4195V40.9245C234.434 44.2972 232.314 46.198 229.281 46.198C226.205 46.198 224.107 44.3192 224.107 40.9355V39.4305C224.107 36.2555 226.238 34.1899 229.281 34.1899ZM229.292 36.1565C227.556 36.1565 226.568 37.6067 226.568 39.5512V40.8477C226.568 42.7922 227.491 44.2315 229.292 44.2315C231.072 44.2315 231.984 42.8032 231.984 40.8477V39.5512C231.984 37.6067 231.028 36.1565 229.292 36.1565ZM237.576 46.0002V34.3877H239.971V36.475H240.092C240.389 35.5632 241.234 34.2119 243.586 34.2119C245.926 34.2119 247.497 35.5082 247.497 38.156V46.0002H245.058V38.87C245.058 37.1012 244.135 36.2882 242.762 36.2882C240.96 36.2882 240.015 37.6725 240.015 39.5512V46.0002H237.576ZM256.934 34.4646V31.5642H259.318V34.4646H261.922V36.3762H259.318V42.5395C259.318 43.803 259.79 44.1545 261.098 44.1545C261.427 44.1545 261.867 44.1325 262.054 44.1105V45.9782C261.856 46.0112 261.043 46.0772 260.494 46.0772C257.67 46.0772 256.901 45.0665 256.901 42.7372V36.3762H255.132V34.4646H256.934ZM264.998 46.0002V30.2129H267.426V36.475H267.547C267.799 35.6512 268.744 34.2119 271.073 34.2119C273.337 34.2119 274.952 35.5192 274.952 38.167V46.0002H272.524V38.881C272.524 37.1122 271.546 36.2882 270.161 36.2882C268.415 36.2882 267.426 37.6617 267.426 39.5512V46.0002H264.998ZM283.137 46.198C279.972 46.198 278.007 44.2535 278.007 40.9795V39.4085C278.007 36.1125 280.159 34.1899 282.994 34.1899C285.904 34.1899 287.959 36.2115 287.959 39.4085V40.7707H280.422V41.342C280.422 43.012 281.412 44.2425 283.124 44.2425C284.399 44.2425 285.279 43.6382 285.444 42.913H287.827C287.684 44.2535 286.267 46.198 283.137 46.198ZM280.422 39.1777H285.574V39.024C285.574 37.277 284.554 36.1125 283.004 36.1125C281.457 36.1125 280.422 37.277 280.422 39.024V39.1777Z" fill="white"/>
    <path d="M119.265 85.9994H114.189L124.516 56.0067H130.098L140.403 85.9994H135.129L132.471 77.6937H121.946L119.265 85.9994ZM127.329 61.1922H127.131L123.066 73.8704H131.35L127.329 61.1922ZM154.411 86.3289C151.401 86.3289 149.115 84.9007 147.885 82.7694H147.709V93.7119H142.831V62.7744H147.577V66.1802H147.753C149.028 63.9609 151.401 62.4667 154.521 62.4667C159.728 62.4667 163.442 66.3999 163.442 73.3432V75.4087C163.442 82.3079 159.772 86.3289 154.411 86.3289ZM153.29 82.3079C156.388 82.3079 158.498 79.8252 158.498 75.1449V73.5189C158.498 69.0147 156.52 66.4437 153.202 66.4437C149.797 66.4437 147.665 69.2124 147.665 73.4969V75.1449C147.665 79.5394 149.819 82.3079 153.29 82.3079ZM179.207 86.3289C176.197 86.3289 173.912 84.9007 172.682 82.7694H172.506V93.7119H167.628V62.7744H172.374V66.1802H172.55C173.824 63.9609 176.197 62.4667 179.317 62.4667C184.525 62.4667 188.238 66.3999 188.238 73.3432V75.4087C188.238 82.3079 184.569 86.3289 179.207 86.3289ZM178.087 82.3079C181.185 82.3079 183.294 79.8252 183.294 75.1449V73.5189C183.294 69.0147 181.317 66.4437 177.999 66.4437C174.593 66.4437 172.462 69.2124 172.462 73.4969V75.1449C172.462 79.5394 174.615 82.3079 178.087 82.3079ZM198.347 77.6717H203.225C203.444 80.2647 205.73 82.4839 209.97 82.4839C213.859 82.4839 216.167 80.6602 216.167 77.8257C216.167 75.5404 214.628 74.3099 211.42 73.5409L206.499 72.3104C202.631 71.4097 199.16 69.1024 199.16 64.2244C199.16 58.4897 204.17 55.3477 209.992 55.3477C215.815 55.3477 220.671 58.4897 220.781 64.0927H215.991C215.771 61.5439 213.815 59.4344 209.926 59.4344C206.499 59.4344 204.17 61.0604 204.17 63.8509C204.17 65.8067 205.532 67.2129 208.322 67.8499L213.222 69.0584C217.727 70.1572 221.154 72.2884 221.154 77.3862C221.154 83.2749 216.386 86.5927 209.597 86.5927C201.247 86.5927 198.457 81.7147 198.347 77.6717ZM227.099 62.7744V57.1274H231.889V62.7744H236.415V66.6854H231.889V79.0779C231.889 81.6049 232.833 82.3079 235.448 82.3079C235.866 82.3079 236.261 82.3079 236.547 82.2642V85.9994C236.151 86.0654 235.228 86.1532 234.24 86.1532C228.593 86.1532 227.033 84.1317 227.033 79.4734V66.6854H223.825V62.7744H227.099ZM249.588 62.3789C256.268 62.3789 259.893 67.0809 259.893 73.4092V75.2767C259.893 81.8247 256.29 86.3949 249.588 86.3949C242.886 86.3949 239.239 81.8247 239.239 75.2767V73.4092C239.239 67.1029 242.908 62.3789 249.588 62.3789ZM249.588 66.2899C245.963 66.2899 244.161 69.2562 244.161 73.4749V75.2547C244.161 79.4077 245.941 82.4619 249.588 82.4619C253.236 82.4619 254.993 79.4297 254.993 75.2547V73.4749C254.993 69.2342 253.214 66.2899 249.588 66.2899ZM264.014 85.9994V62.7744H268.892V65.8284H269.067C269.661 64.3784 271.396 62.4447 274.627 62.4447C275.265 62.4447 275.812 62.4887 276.275 62.5767V66.8832C275.857 66.7734 275 66.7074 274.187 66.7074C270.276 66.7074 268.957 69.1244 268.957 72.2444V85.9994H264.014ZM288.107 86.3949C281.89 86.3949 277.935 82.2859 277.935 75.4087V73.0574C277.935 66.5757 281.8 62.3789 287.91 62.3789C294.105 62.3789 297.84 66.7294 297.84 73.2772V75.4964H282.745V76.0459C282.745 79.9569 284.855 82.5497 288.172 82.5497C290.655 82.5497 292.347 81.3192 292.942 79.3197H297.577C296.875 83.0772 293.842 86.3949 288.107 86.3949ZM282.745 72.0907H293.072V72.0467C293.072 68.7509 291.03 66.1582 287.932 66.1582C284.79 66.1582 282.745 68.7509 282.745 72.0467V72.0907Z" fill="white"/>
</svg>
