<svg width="367" height="120" viewBox="0 0 367 120" fill="none" xmlns="http://www.w3.org/2000/svg">
    <g filter="url(#filter0_b_1026_1706)">
        <path d="M349.231 0H16.9231C7.57672 0 0 7.57672 0 16.9231V103.077C0 112.423 7.57672 120 16.9231 120H349.231C358.577 120 366.154 112.423 366.154 103.077V16.9231C366.154 7.57672 358.577 0 349.231 0Z" fill="black" fill-opacity="0.3"/>
        <path d="M68.2628 58.4043L43.9746 84.7648C43.9769 84.7695 43.9769 84.7765 43.9792 84.7813C44.7251 87.6435 47.2801 89.75 50.314 89.75C51.5278 89.75 52.666 89.414 53.6425 88.8263L53.72 88.7795L81.058 72.6483L68.2628 58.4043Z" fill="#EA4335"/>
        <path d="M92.8339 53.9148L92.8109 53.8986L81.0082 46.9023L67.7109 59.0026L81.0559 72.6448L92.7952 65.7188C94.8527 64.5803 96.2512 62.3618 96.2512 59.8051C96.2512 57.2623 94.8732 55.0556 92.8339 53.9148Z" fill="#FBBC04"/>
        <path d="M43.9736 34.7324C43.8276 35.283 43.75 35.8615 43.75 36.4588V83.04C43.75 83.6373 43.8275 84.2158 43.9758 84.764L69.0965 59.0775L43.9736 34.7324Z" fill="#4285F4"/>
        <path d="M68.4428 59.7498L81.0123 46.8983L53.7063 30.7088C52.714 30.0999 51.555 29.75 50.3163 29.75C47.2824 29.75 44.7229 31.8612 43.9769 34.7259L43.9746 34.7329L68.4428 59.7498Z" fill="#34A853"/>
        <path d="M132.776 39.0242C132.776 41.5242 132.034 43.516 130.551 44.9992C128.884 46.766 126.693 47.6492 123.976 47.6492C121.376 47.6492 119.176 46.7492 117.376 44.9492C115.576 43.1492 114.676 40.9325 114.676 38.2992C114.676 35.666 115.576 33.4492 117.376 31.6492C119.176 29.8492 121.376 28.9492 123.976 28.9492C125.293 28.9492 126.534 29.1825 127.701 29.6492C128.868 30.1159 129.826 30.7742 130.576 31.6242L128.926 33.2742C128.376 32.6075 127.659 32.0909 126.776 31.7242C125.909 31.3409 124.976 31.1492 123.976 31.1492C122.026 31.1492 120.376 31.8242 119.026 33.1742C117.693 34.5409 117.026 36.2492 117.026 38.2992C117.026 40.3492 117.693 42.0575 119.026 43.4242C120.376 44.7742 122.026 45.4492 123.976 45.4492C125.759 45.4492 127.243 44.9492 128.426 43.9492C129.609 42.9492 130.293 41.5742 130.476 39.8242H123.976V37.6742H132.651C132.734 38.141 132.776 38.591 132.776 39.0242ZM146.02 29.3492V31.5492H137.87V37.2242H145.22V39.3742H137.87V45.0492H146.02V47.2492H135.57V29.3492H146.02ZM155.22 31.5492V47.2492H152.92V31.5492H147.92V29.3492H160.22V31.5492H155.22ZM170.414 47.2492H168.114V29.3492H170.414V47.2492ZM180.123 31.5492V47.2492H177.823V31.5492H172.823V29.3492H185.123V31.5492H180.123ZM210.053 38.2992C210.053 40.9492 209.17 43.166 207.403 44.9492C205.62 46.7492 203.437 47.6492 200.853 47.6492C198.253 47.6492 196.07 46.7492 194.303 44.9492C192.537 43.166 191.653 40.9492 191.653 38.2992C191.653 35.6492 192.537 33.4325 194.303 31.6492C196.07 29.8492 198.253 28.9492 200.853 28.9492C203.453 28.9492 205.637 29.8575 207.403 31.6742C209.17 33.4575 210.053 35.666 210.053 38.2992ZM194.003 38.2992C194.003 40.366 194.653 42.0742 195.953 43.4242C197.27 44.7742 198.903 45.4492 200.853 45.4492C202.803 45.4492 204.428 44.7742 205.728 43.4242C207.045 42.091 207.703 40.3825 207.703 38.2992C207.703 36.216 207.045 34.5075 205.728 33.1742C204.428 31.8242 202.803 31.1492 200.853 31.1492C198.903 31.1492 197.27 31.8242 195.953 33.1742C194.653 34.5242 194.003 36.2325 194.003 38.2992ZM215.068 47.2492H212.768V29.3492H215.568L224.268 43.2742H224.368L224.268 39.8242V29.3492H226.568V47.2492H224.168L215.068 32.6492H214.968L215.068 36.0992V47.2492Z" fill="white"/>
        <path d="M257.545 88.2743H261.617V60.7452H257.545V88.2743ZM294.223 70.6615L289.555 82.597H289.415L284.57 70.6615H280.182L287.447 87.3428L283.307 96.6225H287.553L298.75 70.6615H294.223ZM271.13 85.147C269.794 85.147 267.935 84.4755 267.935 82.8085C267.935 80.6855 270.25 79.8708 272.251 79.8708C274.04 79.8708 274.885 80.2605 275.973 80.7913C275.655 83.3412 273.48 85.147 271.13 85.147ZM271.621 70.0602C268.673 70.0602 265.617 71.3705 264.356 74.2753L267.97 75.797C268.742 74.2753 270.18 73.7775 271.691 73.7775C273.798 73.7775 275.938 75.0525 275.973 77.3207V77.6027C275.235 77.1775 273.657 76.5412 271.725 76.5412C267.83 76.5412 263.863 78.7015 263.863 82.738C263.863 86.4223 267.057 88.796 270.637 88.796C273.375 88.796 274.885 87.5562 275.833 86.1027H275.973V88.228H279.902V77.673C279.902 72.7865 276.288 70.0602 271.621 70.0602ZM246.455 74.0132H240.664V64.577H246.455C249.499 64.577 251.228 67.1205 251.228 69.294C251.228 71.4278 249.499 74.0132 246.455 74.0132ZM246.35 60.7452H236.594V88.2743H240.664V77.8447H246.35C250.863 77.8447 255.3 74.546 255.3 69.294C255.3 64.042 250.863 60.7452 246.35 60.7452ZM193.146 85.1515C190.333 85.1515 187.978 82.7755 187.978 79.5117C187.978 76.213 190.333 73.7995 193.146 73.7995C195.924 73.7995 198.102 76.213 198.102 79.5117C198.102 82.7755 195.924 85.1515 193.146 85.1515ZM197.822 72.203H197.68C196.766 71.1042 195.009 70.111 192.794 70.111C188.153 70.111 183.9 74.2245 183.9 79.5117C183.9 84.7617 188.153 88.8423 192.794 88.8423C195.009 88.8423 196.766 87.849 197.68 86.7128H197.822V88.0627C197.822 91.6455 195.924 93.5615 192.864 93.5615C190.368 93.5615 188.821 91.7513 188.188 90.2253L184.637 91.716C185.656 94.2 188.364 97.25 192.864 97.25C197.646 97.25 201.689 94.4115 201.689 87.4945V70.677H197.822V72.203ZM204.502 88.2743H208.58V60.7433H204.502V88.2743ZM214.59 79.1925C214.486 75.5745 217.369 73.729 219.442 73.729C221.061 73.729 222.431 74.544 222.887 75.7155L214.59 79.1925ZM227.247 76.07C226.475 73.978 224.118 70.111 219.302 70.111C214.521 70.111 210.549 73.9052 210.549 79.4767C210.549 84.7265 214.486 88.8423 219.758 88.8423C224.013 88.8423 226.475 86.2172 227.494 84.6912L224.33 82.5618C223.276 84.1233 221.833 85.1515 219.758 85.1515C217.685 85.1515 216.208 84.1935 215.258 82.3153L227.668 77.1335L227.247 76.07ZM128.375 72.9847V76.9575H137.796C137.515 79.1925 136.777 80.8242 135.653 81.9585C134.28 83.3435 132.135 84.8697 128.375 84.8697C122.573 84.8697 118.038 80.1505 118.038 74.2972C118.038 68.4417 122.573 63.7247 128.375 63.7247C131.505 63.7247 133.789 64.9668 135.476 66.5635L138.254 63.76C135.897 61.4898 132.77 59.75 128.375 59.75C120.43 59.75 113.75 66.2792 113.75 74.2972C113.75 82.3152 120.43 88.8423 128.375 88.8423C132.663 88.8423 135.897 87.422 138.429 84.7617C141.032 82.1367 141.84 78.4482 141.84 75.4665C141.84 74.544 141.77 73.6937 141.628 72.9847H128.375ZM152.552 85.1515C149.739 85.1515 147.312 82.8107 147.312 79.4767C147.312 76.1052 149.739 73.7995 152.552 73.7995C155.363 73.7995 157.789 76.1052 157.789 79.4767C157.789 82.8107 155.363 85.1515 152.552 85.1515ZM152.552 70.111C147.417 70.111 143.234 74.0485 143.234 79.4767C143.234 84.8697 147.417 88.8423 152.552 88.8423C157.685 88.8423 161.868 84.8697 161.868 79.4767C161.868 74.0485 157.685 70.111 152.552 70.111ZM172.875 85.1515C170.062 85.1515 167.635 82.8107 167.635 79.4767C167.635 76.1052 170.062 73.7995 172.875 73.7995C175.688 73.7995 178.112 76.1052 178.112 79.4767C178.112 82.8107 175.688 85.1515 172.875 85.1515ZM172.875 70.111C167.743 70.111 163.559 74.0485 163.559 79.4767C163.559 84.8697 167.743 88.8423 172.875 88.8423C178.008 88.8423 182.191 84.8697 182.191 79.4767C182.191 74.0485 178.008 70.111 172.875 70.111Z" fill="white"/>
    </g>
    <defs>
        <filter id="filter0_b_1026_1706" x="-20" y="-20" width="406.154" height="160" filterUnits="userSpaceOnUse" color-interpolation-filters="sRGB">
            <feFlood flood-opacity="0" result="BackgroundImageFix"/>
            <feGaussianBlur in="BackgroundImageFix" stdDeviation="10"/>
            <feComposite in2="SourceAlpha" operator="in" result="effect1_backgroundBlur_1026_1706"/>
            <feBlend mode="normal" in="SourceGraphic" in2="effect1_backgroundBlur_1026_1706" result="shape"/>
        </filter>
    </defs>
</svg>
