<svg width="105" height="66" viewBox="0 0 105 66" fill="none" xmlns="http://www.w3.org/2000/svg">
    <path opacity="0.5" fill-rule="evenodd" clip-rule="evenodd" d="M0.875 4.34375C0.875 2.35899 2.76382 0.75 5.09375 0.75H100.719C103.049 0.75 104.938 2.35899 104.938 4.34375C104.938 6.32851 103.049 7.9375 100.719 7.9375H5.09375C2.76382 7.9375 0.875 6.32851 0.875 4.34375ZM0.875 28.3021C0.875 26.3174 2.76382 24.7083 5.09375 24.7083H44.4688C46.7986 24.7083 48.6875 26.3174 48.6875 28.3021C48.6875 30.2868 46.7986 31.8958 44.4688 31.8958H5.09375C2.76382 31.8958 0.875 30.2868 0.875 28.3021ZM0.875 52.2604C0.875 50.2757 2.76382 48.6667 5.09375 48.6667H44.4688C46.7986 48.6667 48.6875 50.2757 48.6875 52.2604C48.6875 54.2451 46.7986 55.8542 44.4688 55.8542H5.09375C2.76382 55.8542 0.875 54.2451 0.875 52.2604Z" fill="#1C274C"/>
    <path d="M103.314 35.4683C105.151 36.6888 105.478 38.9471 104.045 40.512L82.1079 64.4704C81.3249 65.3257 80.1307 65.8336 78.8578 65.8532C77.5848 65.8729 76.3698 65.4019 75.5508 64.5715L63.7383 52.5923C62.2398 51.0729 62.4716 48.8059 64.2553 47.5294C66.0395 46.2524 68.7007 46.4499 70.1992 47.9693L78.6598 56.5497L97.3921 36.0917C98.8254 34.5268 101.476 34.2474 103.314 35.4683Z" fill="#FAC738"/>
</svg>

