<svg width="100" height="105" viewBox="0 0 100 105" fill="none" xmlns="http://www.w3.org/2000/svg">
<path opacity="0.4" d="M78.0017 28C77.6505 27.9515 77.2993 27.9515 76.9481 28C69.1713 27.7574 63 21.5945 63 14.0243C63 6.30849 69.4723 0 77.5 0C85.4775 0 92 6.25996 92 14.0243C91.9498 21.5945 85.7786 27.7574 78.0017 28Z" fill="#292D32"/>
<path opacity="0.4" d="M94.0817 61.6647C88.4465 65.2871 80.5472 66.6394 73.2516 65.7218C75.1635 61.7613 76.1698 57.3661 76.2201 52.7294C76.2201 47.8995 75.1132 43.3111 73 39.3023C80.4465 38.3364 88.3459 39.6887 94.0314 43.3111C101.981 48.3342 101.981 56.5933 94.0817 61.6647Z" fill="#292D32"/>
<path opacity="0.4" d="M21.9983 28C22.3495 27.9515 22.7007 27.9515 23.0519 28C30.8287 27.7574 37 21.5945 37 14.0243C37 6.30849 30.5277 0 22.5 0C14.5225 0 8 6.25996 8 14.0243C8.05017 21.5945 14.2215 27.7574 21.9983 28Z" fill="#292D32"/>
<path opacity="0.4" d="M22.8409 52.7051C22.8409 57.3815 23.8939 61.8169 25.7994 65.8183C18.729 66.5415 11.3578 65.0952 5.94214 61.6722C-1.98071 56.6101 -1.98071 48.3662 5.94214 43.3041C11.3076 39.833 18.8795 38.4349 26 39.2062C23.9441 43.2559 22.8409 47.8359 22.8409 52.7051Z" fill="#292D32"/>
<path d="M50.6425 68C50.2471 67.9505 49.8024 67.9505 49.3576 68C40.2646 67.7031 33 60.23 33 51.0247C33 41.6215 40.5611 34 50 34C59.3896 34 67 41.6215 67 51.0247C67 60.23 59.7849 67.7031 50.6425 68Z" fill="#FAC738"/>
<path d="M34.5795 83.1566C27.1402 88.0241 27.1402 96.0241 34.5795 100.843C43.0534 106.386 56.9467 106.386 65.4205 100.843C72.8598 95.9759 72.8598 87.9759 65.4205 83.1566C56.9959 77.6145 43.1027 77.6145 34.5795 83.1566Z" fill="#FAC738"/>
</svg>
