<svg width="439" height="893" viewBox="0 0 439 893" fill="none" xmlns="http://www.w3.org/2000/svg">
    <g clip-path="url(#clip0_290_79)">
        <path fill-rule="evenodd" clip-rule="evenodd" d="M90.3598 0H348.64C408.64 0 436.821 33.2971 436.821 88.2034V283.603C438.091 284.052 439 285.263 439 286.687V388.133C439 389.556 438.091 390.767 436.821 391.216V813.797C436.821 863.703 408.534 893 358.64 893H80.3598C30.4659 893 2.17866 864.703 2.17866 813.797V390.382C0.909381 389.933 0 388.722 0 387.299V326.993C0 325.569 0.909381 324.359 2.17866 323.91V303.923C0.909381 303.474 0 302.263 0 300.84V239.534C0 238.11 0.909381 236.899 2.17866 236.45V205.925C0.909381 205.476 0 204.266 0 202.842V175.599C0 174.176 0.909381 172.965 2.17866 172.516V88.2034C2.17866 33.3 30.3598 0 90.3598 0Z" fill="black"/>
    </g>
    <defs>
        <clipPath id="clip0_290_79">
            <rect width="439" height="893" fill="white"/>
        </clipPath>
    </defs>
</svg>
