<svg width="84" height="102" viewBox="0 0 84 102" fill="none" xmlns="http://www.w3.org/2000/svg">
    <path d="M42 1.75342L48.3564 30.8654C49.132 34.4178 49.52 36.1941 50.2853 37.6462C50.9627 38.9311 51.8511 40.0265 52.8933 40.862C54.0707 41.8057 55.5111 42.2842 58.392 43.2405L82 51.0789L58.392 58.9173C55.5111 59.8736 54.0707 60.3521 52.8933 61.2958C51.8511 62.1311 50.9627 63.2267 50.2853 64.5119C49.52 65.9637 49.132 67.74 48.3564 71.2925L42 100.404L35.6436 71.2925C34.868 67.74 34.48 65.9637 33.7147 64.5119C33.0372 63.2267 32.1488 62.1311 31.1069 61.2958C29.9293 60.3521 28.4889 59.8736 25.608 58.9173L2 51.0789L25.608 43.2405C28.4889 42.2842 29.9293 41.8057 31.1069 40.862C32.1488 40.0265 33.0372 38.9311 33.7147 37.6462C34.48 36.1941 34.868 34.4178 35.6436 30.8654L42 1.75342Z" stroke="black" stroke-opacity="0.71" stroke-width="3" stroke-linecap="round" stroke-linejoin="round"/>
</svg>
