<svg width="83" height="81" viewBox="0 0 83 81" fill="none" xmlns="http://www.w3.org/2000/svg">
<g clip-path="url(#clip0_137_6)">
<mask id="mask0_137_6" style="mask-type:luminance" maskUnits="userSpaceOnUse" x="0" y="0" width="83" height="81">
<path d="M83 0H0V81H83V0Z" fill="white"/>
</mask>
<g mask="url(#mask0_137_6)">
<path d="M41.4997 1.1084C33.5164 1.1084 25.7125 3.41869 19.0747 7.74706C12.4369 12.0754 7.26332 18.2275 4.20827 25.4253C1.15322 32.6232 0.353896 40.5435 1.91135 48.1846C3.4688 55.8258 7.31306 62.8446 12.9581 68.3536C18.6031 73.8626 25.7952 77.6142 33.625 79.1341C41.4549 80.6541 49.5707 79.874 56.9463 76.8926C64.3218 73.9111 70.6258 68.8622 75.0611 62.3844C79.4963 55.9065 81.8636 48.2906 81.8636 40.4997C81.8513 30.0562 77.5947 20.0438 70.0277 12.6592C62.4607 5.27447 52.2011 1.12046 41.4997 1.1084ZM38.6154 7.57325C34.3165 12.0084 30.9199 17.2 28.6061 22.8721C24.7206 21.471 21.1006 19.4497 17.8939 16.8908C23.4704 11.5133 30.8035 8.21593 38.6154 7.57325ZM15.085 17.8805L15.1342 17.9235C18.8225 21.0941 23.0771 23.5755 27.6854 25.2439C26.1242 29.7567 25.2655 34.4726 25.1383 39.2341H6.38812C6.67203 31.3494 9.7451 23.804 15.085 17.8805ZM16.4233 64.5567C10.2753 58.4558 6.6946 50.3271 6.38812 41.7755H25.1383C25.2978 47.336 26.453 52.8263 28.5517 57.9983C24.2197 59.4558 20.1775 61.6307 16.6023 64.4277L16.4233 64.5567ZM19.4347 65.4857C22.5148 63.2708 25.9268 61.5333 29.5503 60.3346C31.8162 65.16 34.8835 69.5869 38.6284 73.4363C31.5308 72.8303 24.8119 70.0472 19.4347 65.4857ZM40.2028 71.381C36.8815 67.8934 34.1397 63.9202 32.0766 59.6056C34.7341 58.9354 37.4594 58.5542 40.2028 58.4691V71.381ZM40.2028 55.9404C37.1 56.0272 34.0182 56.4689 31.0209 57.2566C28.9989 52.3228 27.8847 47.0796 27.7295 41.7679H40.2028V55.9404ZM40.2028 39.2341H27.7295C27.8613 34.7412 28.6804 30.2928 30.1598 26.0362C33.4238 26.983 36.7993 27.5155 40.2028 27.6207V39.2341ZM40.2028 25.092C37.1037 24.9872 34.0303 24.5033 31.0546 23.6517C33.1989 18.4674 36.2997 13.7109 40.2028 9.61846V25.092ZM65.1028 16.8908C62.0147 19.3495 58.5437 21.3106 54.8211 22.7C52.5388 17.1178 49.2035 12.003 44.9883 7.6213C52.5794 8.38458 59.6758 11.6549 65.1028 16.8908ZM42.7966 9.0262C46.9101 13.2166 50.1673 18.1341 52.3935 23.5151C49.2798 24.4517 46.0528 24.9819 42.7966 25.092V9.0262ZM42.7966 27.6207C46.3511 27.5084 49.8739 26.9295 53.2701 25.8995C54.7481 30.2027 55.5603 34.6971 55.6797 39.2341H42.7966V27.6207ZM42.7966 41.7654H55.6797C55.5451 47.1185 54.4431 52.4064 52.4246 57.3857C49.2881 56.5199 46.0545 56.0337 42.7966 55.9378V41.7654ZM42.7966 58.4716C45.6906 58.5655 48.5633 58.9902 51.3559 59.7373C49.2043 64.2465 46.3133 68.3829 42.7966 71.9834V58.4716ZM45.0064 73.3705C48.6572 69.5745 51.6545 65.227 53.8822 60.4966C57.3447 61.6855 60.6076 63.3685 63.5647 65.4907C58.3507 69.9081 51.8728 72.6568 45.0064 73.3655V73.3705ZM66.576 64.5618L66.3971 64.4226C62.9433 61.7204 59.0533 59.5973 54.886 58.14C56.9814 52.9176 58.1226 47.3773 58.2579 41.7705H76.5983C76.2941 50.3186 72.7181 58.445 66.576 64.5466V64.5618ZM58.276 39.2493C58.1598 34.4376 57.3066 29.6699 55.7446 25.1047C60.1909 23.4386 64.2971 21.012 67.8703 17.9387L67.9196 17.8957C73.2595 23.8192 76.3325 31.3647 76.6165 39.2493H58.276ZM76.6683 40.277C76.6683 40.358 76.6813 40.434 76.6813 40.515C76.6813 40.596 76.6683 40.6744 76.6683 40.7529V40.277Z" fill="#FAC738"/>
</g>
</g>
<defs>
<clipPath id="clip0_137_6">
<rect width="83" height="81" fill="white"/>
</clipPath>
</defs>
</svg>
