<svg width="279" height="48" viewBox="0 0 279 48" fill="none" xmlns="http://www.w3.org/2000/svg">
<path d="M46.005 17.9002C45.6606 16.8632 44.7734 16.1071 43.7052 15.9418L31.2732 14.0198L25.689 1.98454C25.2128 0.958685 24.1952 0.305664 23.0772 0.305664C21.9585 0.305664 20.9416 0.958685 20.4654 1.98454L14.8805 14.0206L2.44843 15.9426C1.38025 16.1079 0.493035 16.8632 0.14943 17.9009C-0.194175 18.9386 0.0651772 20.0816 0.820523 20.8658L9.89932 30.2846L7.74904 43.6096C7.57174 44.7126 8.03403 45.8215 8.93591 46.4663C9.83705 47.1112 11.0268 47.1764 11.9961 46.6353L23.0779 40.435L34.1598 46.6353C34.5971 46.8799 35.0785 47 35.5576 47C36.1408 47 36.724 46.8206 37.22 46.4663C38.1218 45.8222 38.5834 44.7133 38.4061 43.6096L36.2558 30.2846L45.3354 20.8658C46.0892 20.0816 46.3486 18.9386 46.005 17.9002Z" fill="#FAC738"/>
<path d="M103.966 17.9002C103.622 16.8632 102.734 16.1071 101.666 15.9418L89.2341 14.0198L83.65 1.98454C83.1738 0.958685 82.1561 0.305664 81.0381 0.305664C79.9194 0.305664 78.9025 0.958685 78.4263 1.98454L72.8414 14.0206L60.4094 15.9426C59.3412 16.1079 58.454 16.8632 58.1104 17.9009C57.7668 18.9386 58.0261 20.0816 58.7815 20.8658L67.8603 30.2846L65.71 43.6096C65.5327 44.7126 65.995 45.8215 66.8968 46.4663C67.798 47.1112 68.9878 47.1764 69.9571 46.6353L81.0389 40.435L92.1207 46.6353C92.5581 46.8799 93.0394 47 93.5186 47C94.1017 47 94.6849 46.8206 95.1809 46.4663C96.0828 45.8222 96.5443 44.7133 96.367 43.6096L94.2168 30.2846L103.296 20.8658C104.05 20.0816 104.31 18.9386 103.966 17.9002Z" fill="#FAC738"/>
<path d="M161.928 17.9002C161.583 16.8632 160.696 16.1071 159.628 15.9418L147.196 14.0198L141.612 1.98454C141.136 0.958685 140.118 0.305664 139 0.305664C137.881 0.305664 136.864 0.958685 136.388 1.98454L130.803 14.0206L118.371 15.9426C117.303 16.1079 116.416 16.8632 116.072 17.9009C115.729 18.9386 115.988 20.0816 116.743 20.8658L125.822 30.2846L123.672 43.6096C123.495 44.7126 123.957 45.8215 124.859 46.4663C125.76 47.1112 126.95 47.1764 127.919 46.6353L139.001 40.435L150.083 46.6353C150.52 46.8799 151.001 47 151.48 47C152.064 47 152.647 46.8206 153.143 46.4663C154.045 45.8222 154.506 44.7133 154.329 43.6096L152.179 30.2846L161.258 20.8658C162.012 20.0816 162.271 18.9386 161.928 17.9002Z" fill="#FAC738"/>
<path d="M219.889 17.9002C219.544 16.8632 218.657 16.1071 217.589 15.9418L205.157 14.0198L199.573 1.98454C199.097 0.958685 198.079 0.305664 196.961 0.305664C195.842 0.305664 194.825 0.958685 194.349 1.98454L188.764 14.0206L176.332 15.9426C175.264 16.1079 174.377 16.8632 174.033 17.9009C173.69 18.9386 173.949 20.0816 174.704 20.8658L183.783 30.2846L181.633 43.6096C181.456 44.7126 181.918 45.8215 182.82 46.4663C183.721 47.1112 184.911 47.1764 185.88 46.6353L196.962 40.435L208.044 46.6353C208.481 46.8799 208.962 47 209.441 47C210.025 47 210.608 46.8206 211.104 46.4663C212.006 45.8222 212.467 44.7133 212.29 43.6096L210.14 30.2846L219.219 20.8658C219.973 20.0816 220.232 18.9386 219.889 17.9002Z" fill="#FAC738"/>
<path d="M278.005 18.5945C277.661 17.5575 276.773 16.8015 275.705 16.6362L263.273 14.7142L257.689 2.67888C257.213 1.65302 256.195 1 255.077 1C253.958 1 252.942 1.65302 252.465 2.67888L246.88 14.7149L234.448 16.6369C233.38 16.8022 232.493 17.5575 232.149 18.5952C231.806 19.633 232.065 20.7759 232.821 21.5602L241.899 30.9789L239.749 44.304C239.572 45.4069 240.034 46.5158 240.936 47.1607C241.837 47.8055 243.027 47.8708 243.996 47.3297L255.078 41.1293L266.16 47.3297C266.597 47.5743 267.078 47.6943 267.558 47.6943C268.141 47.6943 268.724 47.515 269.22 47.1607C270.122 46.5165 270.583 45.4077 270.406 44.304L268.256 30.9789L277.335 21.5602C278.089 20.7759 278.349 19.633 278.005 18.5945Z" fill="url(#paint0_linear_102_2)"/>
<defs>
<linearGradient id="paint0_linear_102_2" x1="240.5" y1="24" x2="278" y2="24" gradientUnits="userSpaceOnUse">
<stop offset="0.5" stop-color="#FAC738"/>
<stop offset="0.5" stop-color="#8C8C8C"/>
</linearGradient>
</defs>
</svg>
