<svg width="135" height="115" viewBox="0 0 135 115" fill="none" xmlns="http://www.w3.org/2000/svg">
<path opacity="0.5" fill-rule="evenodd" clip-rule="evenodd" d="M16.875 32.3438C16.875 30.359 18.7638 28.75 21.0938 28.75H116.719C119.049 28.75 120.938 30.359 120.938 32.3438C120.938 34.3285 119.049 35.9375 116.719 35.9375H21.0938C18.7638 35.9375 16.875 34.3285 16.875 32.3438ZM16.875 56.3021C16.875 54.3174 18.7638 52.7083 21.0938 52.7083H60.4688C62.7986 52.7083 64.6875 54.3174 64.6875 56.3021C64.6875 58.2868 62.7986 59.8958 60.4688 59.8958H21.0938C18.7638 59.8958 16.875 58.2868 16.875 56.3021ZM16.875 80.2604C16.875 78.2757 18.7638 76.6667 21.0938 76.6667H60.4688C62.7986 76.6667 64.6875 78.2757 64.6875 80.2604C64.6875 82.2451 62.7986 83.8542 60.4688 83.8542H21.0938C18.7638 83.8542 16.875 82.2451 16.875 80.2604Z" fill="#1C274C"/>
<path d="M119.314 53.4683C121.151 54.6888 121.478 56.9471 120.045 58.512L98.1079 82.4704C97.3249 83.3257 96.1307 83.8336 94.8578 83.8532C93.5848 83.8729 92.3698 83.4019 91.5508 82.5715L79.7383 70.5923C78.2398 69.0729 78.4716 66.8059 80.2553 65.5294C82.0395 64.2524 84.7007 64.4499 86.1992 65.9693L94.6598 74.5497L113.392 54.0917C114.825 52.5268 117.476 52.2474 119.314 53.4683Z" fill="#FAC738"/>
</svg>
